<svg width="1512" height="180" viewBox="0 0 1512 180" fill="none" xmlns="http://www.w3.org/2000/svg">
<g clip-path="url(#clip0_12_3503)">
<path d="M0 0H1512V116C1512 151.346 1483.35 180 1448 180H0V0Z" fill="url(#paint0_linear_12_3503)"/>
<path fill-rule="evenodd" clip-rule="evenodd" d="M956.191 228.605C998.186 180.952 1025.23 124.52 1045.51 64.563C1054.67 37.4725 1062.3 9.78249 1069.27 -17.9881C1072.95 -32.663 1077.7 -46.4298 1086.8 -58.3263C1097.84 -72.7552 1108.84 -87.2512 1120.82 -100.83C1124.22 -104.664 1129.3 -106.951 1134.16 -109.452C1136.38 -110.592 1138.84 -111.125 1139.77 -110.512C1140.69 -109.899 1141.3 -107.349 1141.21 -104.821C1140.96 -97.6131 1141 -90.3472 1139.67 -83.3498C1118.92 26.4842 1081.34 129.048 1011.88 217.205C982.961 253.915 947.867 283.041 903.251 298.105C878.173 306.565 852.415 309.335 826 305.026C879.479 297.532 921.013 268.522 956.191 228.605Z" fill="white" fill-opacity="0.08"/>
<path fill-rule="evenodd" clip-rule="evenodd" d="M1067.54 228.606C1109.53 180.953 1136.58 124.521 1156.86 64.5645C1166.02 37.474 1173.65 9.78395 1180.62 -17.9866C1184.31 -32.6616 1189.05 -46.4283 1198.15 -58.3248C1209.19 -72.7537 1220.19 -87.2497 1232.17 -100.829C1235.56 -104.663 1240.66 -106.949 1245.51 -109.45C1247.73 -110.591 1250.21 -111.123 1251.13 -110.51C1252.03 -109.897 1252.65 -107.347 1252.57 -104.819C1252.31 -97.6117 1252.35 -90.3458 1251.02 -83.3483C1230.27 26.4857 1192.7 129.049 1123.23 217.206C1094.31 253.916 1059.23 283.042 1014.6 298.107C989.522 306.567 963.778 309.336 937.349 305.028C990.829 297.534 1032.36 268.524 1067.54 228.606Z" fill="white" fill-opacity="0.08"/>
<path fill-rule="evenodd" clip-rule="evenodd" d="M1178.89 228.606C1220.88 180.953 1247.92 124.521 1268.19 64.5645C1277.36 37.474 1284.98 9.78394 1291.96 -17.9866C1295.66 -32.6616 1300.39 -46.4283 1309.49 -58.3249C1320.53 -72.7537 1331.54 -87.2497 1343.52 -100.829C1346.91 -104.663 1352.01 -106.949 1356.85 -109.45C1359.07 -110.591 1361.55 -111.123 1362.46 -110.51C1363.37 -109.897 1364 -107.347 1363.9 -104.819C1363.65 -97.6117 1363.69 -90.3458 1362.36 -83.3483C1341.61 26.4856 1304.03 129.049 1234.58 217.206C1205.65 253.916 1170.57 283.042 1125.94 298.107C1100.86 306.567 1075.12 309.336 1048.69 305.028C1102.17 297.534 1143.71 268.524 1178.89 228.606Z" fill="white" fill-opacity="0.08"/>
</g>
<defs>
<linearGradient id="paint0_linear_12_3503" x1="756" y1="0" x2="756" y2="180" gradientUnits="userSpaceOnUse">
<stop stop-color="#D61924"/>
<stop offset="1" stop-color="#BD0711"/>
</linearGradient>
<clipPath id="clip0_12_3503">
<path d="M0 0H1512V116C1512 151.346 1483.35 180 1448 180H0V0Z" fill="white"/>
</clipPath>
</defs>
</svg>
