<svg width="200" height="32" viewBox="0 0 200 32" fill="none" xmlns="http://www.w3.org/2000/svg">
<path fill-rule="evenodd" clip-rule="evenodd" d="M10.0896 25.8586C13.3441 22.2579 15.4399 17.9938 17.0117 13.4634C17.7214 11.4164 18.3129 9.32412 18.853 7.22575C19.1384 6.11689 19.5063 5.07666 20.2116 4.17774C21.0673 3.08748 21.9197 1.99214 22.8485 0.966113C23.1117 0.676391 23.5055 0.503639 23.8819 0.31466C24.0541 0.228453 24.245 0.188223 24.3164 0.234538C24.3881 0.280853 24.4356 0.473552 24.4281 0.664559C24.4091 1.20918 24.4118 1.7582 24.3089 2.28694C22.7007 10.5861 19.7886 18.3359 14.4058 24.9972C12.1643 27.771 9.44452 29.9718 5.98686 31.1101C4.04333 31.7494 2.04714 31.9587 0 31.6331C4.14457 31.0668 7.3634 28.8748 10.0896 25.8586Z" fill="#ED2024"/>
<path fill-rule="evenodd" clip-rule="evenodd" d="M18.719 25.8586C21.9735 22.2579 24.0693 17.9938 25.6411 13.4634C26.3508 11.4164 26.9423 9.32412 27.4824 7.22575C27.7688 6.11689 28.1357 5.07666 28.841 4.17774C29.6967 3.08748 30.5494 1.99214 31.4778 0.966113C31.7401 0.676391 32.1359 0.503639 32.5113 0.31466C32.6835 0.228453 32.8754 0.188223 32.9468 0.234538C33.0168 0.280853 33.065 0.473552 33.0586 0.664559C33.0385 1.20918 33.0412 1.7582 32.9383 2.28694C31.3301 10.5861 28.4183 18.3359 23.0352 24.9972C20.7937 27.771 18.0749 29.9718 14.6163 31.1101C12.6727 31.7494 10.6776 31.9587 8.62939 31.6331C12.774 31.0668 15.9928 28.8748 18.719 25.8586Z" fill="#8B181A"/>
<path fill-rule="evenodd" clip-rule="evenodd" d="M27.3483 25.8586C30.6028 22.2579 32.6982 17.9938 34.269 13.4634C34.9801 11.4164 35.5702 9.32412 36.1113 7.22575C36.3977 6.11689 36.7649 5.07666 37.4699 4.17774C38.3256 3.08748 39.1783 1.99214 40.1071 0.966113C40.37 0.676391 40.7648 0.503639 41.1402 0.31466C41.3124 0.228453 41.5044 0.188223 41.5747 0.234538C41.6457 0.280853 41.6943 0.473551 41.6868 0.664559C41.6674 1.20918 41.6701 1.7582 41.5672 2.28694C39.959 10.5861 37.0469 18.336 31.6641 24.9972C29.4226 27.771 26.7038 29.9718 23.2452 31.1101C21.3016 31.7494 19.3065 31.9587 17.2583 31.6331C21.4029 31.0668 24.622 28.8748 27.3483 25.8586Z" fill="black"/>
<path d="M67.2674 7.51288V18.2174C67.2674 18.7306 67.6856 19.1461 68.2003 19.1461H69.977C70.4927 19.1461 70.9099 18.7306 70.9099 18.2174V7.18462C70.9099 4.09571 68.1218 2.52979 62.6221 2.52979H56.6332C51.0761 2.52979 48.2592 4.10754 48.2592 7.21876V18.2171C48.2592 18.7303 48.6763 19.1457 49.192 19.1457H50.9331C51.4491 19.1457 51.8659 18.7303 51.8659 18.2171V7.52978C51.8659 6.72924 52.5321 6.16298 53.8587 5.84385C54.616 5.64878 55.4384 5.55041 56.3034 5.55041H62.6221C63.5139 5.55041 64.3659 5.64169 65.1568 5.82255C66.5578 6.13898 67.2674 6.70761 67.2674 7.51288Z" fill="black"/>
<path d="M96.5059 3.54288C95.1426 2.85897 93.4919 2.51245 91.5976 2.51245H84.7577C82.4762 2.51245 80.5255 2.87993 78.9635 3.60305C76.97 4.51617 76.0015 5.8681 76.0015 7.73693V13.8353C76.0015 15.2697 76.6646 16.4742 78.0279 17.5155C79.3589 18.5402 81.9387 19.0598 85.695 19.0598H87.6328C88.1488 19.0598 88.566 18.644 88.566 18.1311V17.0023C88.566 16.4898 88.1484 16.074 87.6328 16.074H87.2054C82.199 16.074 79.7645 15.0987 79.7645 13.0922V12.5466H98.0309C98.5469 12.5466 98.9641 12.1311 98.9641 11.6183V7.0804C98.9641 5.51786 98.1586 4.35964 96.5059 3.54288ZM79.6086 9.44078V7.51279C79.6086 6.12672 81.0684 5.48101 84.2019 5.48101H91.0418C95.4442 5.48101 95.4442 7.03611 95.4442 7.54693V9.44078H79.6086Z" fill="black"/>
<path d="M127.107 3.37193C127.107 2.85942 126.688 2.4436 126.173 2.4436H124.38C123.865 2.4436 123.446 2.85942 123.446 3.37193V14.0078C123.446 15.3746 121.837 16.0396 118.524 16.0396H112.552C109.158 16.0396 107.507 15.3581 107.507 13.9561V3.37193C107.507 2.85942 107.09 2.4436 106.574 2.4436H104.832C104.317 2.4436 103.899 2.85942 103.899 3.37193V14.1285C103.899 17.4345 106.809 19.042 112.795 19.042H118.263C120.868 19.042 122.86 18.782 124.19 18.2678C126.153 17.4994 127.107 16.1451 127.107 14.1285V3.37193H127.107Z" fill="black"/>
<path d="M142.816 2.52979H141.122C135.649 2.52979 132.989 4.19916 132.989 7.63357V18.2343C132.989 18.7475 133.408 19.163 133.923 19.163H135.665C136.18 19.163 136.598 18.7475 136.598 18.2343V7.63357C136.598 6.25088 137.973 5.55041 140.688 5.55041H142.816C143.332 5.55041 143.749 5.13459 143.749 4.62174V3.45879C143.749 2.94561 143.332 2.52979 142.816 2.52979Z" fill="black"/>
<path d="M171.046 13.9219V7.78874C171.046 4.2502 168.398 2.52979 162.95 2.52979H156.839C154.691 2.52979 152.808 2.92769 151.237 3.71471C149.325 4.68191 148.395 6.02607 148.395 7.82356V13.9216C148.395 15.7343 149.327 17.0541 151.241 17.9544C152.769 18.6765 154.659 19.0423 156.856 19.0423H162.95C165.144 19.0423 166.977 18.6839 168.398 17.977C170.179 17.0903 171.046 15.7637 171.046 13.9219ZM152.003 13.7492V7.99598C152.003 7.0974 152.722 6.42464 154.155 5.99124C155.073 5.69848 155.994 5.55007 156.891 5.55007H162.846C163.773 5.55007 164.624 5.65893 165.398 5.87934C166.305 6.11734 167.386 6.62985 167.386 7.7191V13.7488C167.386 14.5632 166.708 15.1924 165.371 15.6167C164.478 15.8969 163.634 16.0392 162.863 16.0392H156.908C156.043 16.0392 155.143 15.9169 154.233 15.6758C152.753 15.283 152.003 14.6346 152.003 13.7492Z" fill="black"/>
<path d="M195.493 7.51288V18.2174C195.493 18.7306 195.91 19.1461 196.425 19.1461H198.201C198.717 19.1461 199.134 18.7306 199.134 18.2174V7.18462C199.134 4.09571 196.346 2.52979 190.848 2.52979H184.859C179.302 2.52979 176.484 4.10754 176.484 7.21876V18.2171C176.484 18.7303 176.902 19.1457 177.417 19.1457H179.159C179.675 19.1457 180.092 18.7303 180.092 18.2171V7.52978C180.092 6.72924 180.757 6.16298 182.082 5.84385C182.841 5.64878 183.664 5.55041 184.528 5.55041H190.848C191.74 5.55041 192.591 5.64169 193.382 5.82255C194.783 6.13898 195.493 6.70795 195.493 7.51288Z" fill="black"/>
<path d="M54.6981 24.7805C53.6141 24.7805 52.8331 24.9526 52.3765 25.2923L52.2297 25.4012L52.0932 25.2815C51.7154 24.9492 50.9442 24.7809 49.8007 24.7809C48.1582 24.7809 47.3928 25.2927 47.3928 26.3914V29.5824C47.3928 29.7109 47.4978 29.815 47.6262 29.815H48.1664C48.2951 29.815 48.3997 29.7109 48.3997 29.5824V26.4337C48.3997 26.1896 48.5227 25.8573 49.1115 25.6598C49.6822 25.4692 50.4184 25.4658 50.9942 25.6531C51.5816 25.8407 51.7049 26.1608 51.7049 26.3965V29.5824C51.7049 29.7109 51.8088 29.815 51.9383 29.815H52.4876C52.616 29.815 52.721 29.7109 52.721 29.5824V26.407C52.721 26.1737 52.8348 25.8593 53.3804 25.6865C53.8964 25.5138 54.6152 25.5145 55.2356 25.6896C55.7496 25.8414 56.0098 26.0882 56.0098 26.4228V29.5824C56.0098 29.7109 56.1141 29.815 56.2435 29.815H56.7826C56.9121 29.815 57.016 29.7109 57.016 29.5824V26.3914C57.015 25.292 56.2788 24.7805 54.6981 24.7805Z" fill="black"/>
<path d="M71.628 25.1159C71.2271 24.8934 70.705 24.7805 70.0775 24.7805H68.9507C68.8219 24.7805 68.717 24.8843 68.717 25.0124V25.3194C68.717 25.4479 68.8219 25.552 68.9507 25.552H70.0775C70.8623 25.552 71.2108 25.7001 71.2108 26.0331V26.2572H67.2653C66.6532 26.2572 66.1263 26.3674 65.702 26.5855C65.188 26.8461 64.9481 27.2021 64.9481 27.7072V28.3596C64.9481 28.8245 65.208 29.1784 65.7427 29.4431C66.2003 29.6686 66.7252 29.7829 67.3037 29.7829H70.0772C72.1009 29.7829 72.335 28.9401 72.335 28.3062V26.2951C72.335 25.7646 72.1036 25.3786 71.628 25.1159ZM67.2392 27.0763H71.3291V27.6963C71.3291 28.2105 71.2808 28.4986 71.1677 28.6571C70.9683 28.932 70.5144 28.9634 70.191 28.9634H67.2698C66.397 28.9634 65.954 28.7203 65.954 28.2416V27.862C65.9544 27.2122 66.6535 27.0763 67.2392 27.0763Z" fill="black"/>
<path d="M82.1226 27.1414L84.2924 24.9946C84.3597 24.9287 84.3797 24.8283 84.344 24.7414C84.3077 24.6545 84.2231 24.5977 84.128 24.5977H83.6789C83.6167 24.5977 83.5579 24.6224 83.5141 24.6664L81.1779 27.0034V23.595C81.1779 23.4669 81.0729 23.3628 80.9445 23.3628H80.4159C80.2875 23.3628 80.1825 23.4669 80.1825 23.595V29.5819C80.1825 29.7103 80.2875 29.8144 80.4159 29.8144H80.9445C81.0729 29.8144 81.1779 29.7103 81.1779 29.5819V27.4088L83.5141 29.7455C83.5579 29.7894 83.6171 29.8141 83.6789 29.8141H84.2574C84.2612 29.8134 84.2639 29.8138 84.2673 29.8141C84.3957 29.8141 84.5007 29.71 84.5007 29.5815C84.5007 29.4973 84.4551 29.4236 84.3879 29.3831L82.1226 27.1414Z" fill="black"/>
<path d="M98.1157 25.0879C97.7009 24.88 97.1981 24.7742 96.6216 24.7742H94.5031C93.807 24.7742 93.2101 24.8864 92.7318 25.1068C92.1369 25.3796 91.8472 25.7816 91.8472 26.337V28.2248C91.8472 28.6515 92.0456 29.0098 92.4529 29.3208C92.8548 29.6305 93.6419 29.7877 94.7935 29.7877H95.3935C95.5219 29.7877 95.6269 29.6836 95.6269 29.5551V29.2059C95.6269 29.0777 95.5219 28.9736 95.3935 28.9736H95.261C93.6728 28.9736 92.9013 28.6535 92.9013 27.9946V27.7708H98.613C98.7424 27.7708 98.8464 27.6667 98.8464 27.5382V26.1332C98.8461 25.8394 98.7706 25.4114 98.1157 25.0879ZM92.8531 26.9199V26.2671C92.8531 25.8009 93.3232 25.5835 94.3308 25.5835H96.4493C97.868 25.5835 97.868 26.1065 97.868 26.2786V26.9199H92.8531Z" fill="black"/>
<path d="M118.395 24.9141H117.856C117.727 24.9141 117.622 25.0179 117.622 25.146V29.55C117.622 29.6781 117.727 29.7822 117.856 29.7822H118.395C118.524 29.7822 118.629 29.6781 118.629 29.55V25.146C118.629 25.0179 118.524 24.9141 118.395 24.9141Z" fill="black"/>
<path d="M118.643 23.4406C118.365 23.2326 117.937 23.2411 117.679 23.4331C117.547 23.5271 117.488 23.6407 117.488 23.802C117.488 23.9629 117.549 24.0819 117.679 24.1762C117.811 24.2702 117.967 24.3158 118.159 24.3158C118.349 24.3158 118.508 24.2685 118.645 24.1728C118.823 24.0508 118.844 23.9115 118.844 23.8178C118.844 23.661 118.779 23.5403 118.643 23.4406Z" fill="black"/>
<path d="M130.269 24.8282H128.272V23.5997C128.272 23.4712 128.167 23.3674 128.038 23.3674H127.498C127.37 23.3674 127.265 23.4712 127.265 23.5997V24.8282H126.655C126.526 24.8282 126.421 24.932 126.421 25.0605V25.4094C126.421 25.5378 126.526 25.6419 126.655 25.6419H127.265V29.5818C127.265 29.7102 127.37 29.8144 127.498 29.8144H128.038C128.167 29.8144 128.272 29.7102 128.272 29.5818V25.6419H130.269C130.398 25.6419 130.503 25.5378 130.503 25.4094V25.0605C130.503 24.932 130.398 24.8282 130.269 24.8282Z" fill="black"/>
<path d="M155.251 25.0872C154.836 24.88 154.334 24.7742 153.757 24.7742H151.639C150.943 24.7742 150.346 24.8864 149.867 25.1068C149.272 25.3796 148.984 25.7816 148.984 26.337V28.2248C148.984 28.6518 149.181 29.0101 149.588 29.3208C149.99 29.6305 150.777 29.7877 151.928 29.7877H152.529C152.658 29.7877 152.762 29.6836 152.762 29.5551V29.2059C152.762 29.0777 152.658 28.9736 152.529 28.9736H152.397C150.808 28.9736 150.037 28.6535 150.037 27.9946V27.7708H155.748C155.877 27.7708 155.981 27.6667 155.981 27.5382V26.1332C155.981 25.8394 155.905 25.4114 155.251 25.0872ZM149.988 26.9199V26.2671C149.988 25.8009 150.458 25.5835 151.467 25.5835H153.585C155.002 25.5835 155.002 26.1065 155.002 26.2786V26.9199H149.988Z" fill="black"/>
<path d="M170.433 25.1159C170.033 24.8934 169.511 24.7805 168.883 24.7805H167.756C167.627 24.7805 167.523 24.8843 167.523 25.0124V25.3194C167.523 25.4479 167.627 25.552 167.756 25.552H168.883C169.668 25.552 170.016 25.7001 170.016 26.0331V26.2572H166.071C165.459 26.2572 164.933 26.3674 164.508 26.5858C163.993 26.8464 163.754 27.2028 163.754 27.7072V28.3596C163.754 28.8238 164.014 29.1784 164.549 29.4431C165.006 29.6686 165.531 29.7829 166.109 29.7829H168.883C170.906 29.7829 171.141 28.9401 171.141 28.3062V26.2951C171.141 25.7646 170.909 25.3789 170.433 25.1159ZM166.044 27.0763H170.135V27.6963C170.135 28.2112 170.086 28.4986 169.973 28.6568C169.772 28.9316 169.32 28.9634 168.996 28.9634H166.074C165.202 28.9634 164.76 28.7203 164.76 28.2416V27.862C164.76 27.2122 165.458 27.0763 166.044 27.0763Z" fill="black"/>
<path d="M183.261 26.8233H181.38C180.983 26.8233 180.744 26.8179 180.644 26.8064C180.306 26.7726 179.903 26.6576 179.903 26.3003V26.0698C179.903 25.6404 180.592 25.6049 181.298 25.6049H182.255C182.384 25.6049 182.488 25.5008 182.488 25.3723V25.0119C182.488 24.8838 182.384 24.78 182.255 24.78H181.251C180.536 24.78 179.997 24.8473 179.648 24.9795C179.135 25.1715 178.897 25.5065 178.897 26.0322V26.3101C178.897 27.2171 179.706 27.658 181.375 27.658H183.218C183.902 27.658 184.25 27.8361 184.25 28.1874V28.3798C184.25 28.7665 183.87 28.9626 183.121 28.9626H179.146C179.017 28.9626 178.913 29.0664 178.913 29.1952V29.5498C178.913 29.6779 179.017 29.7821 179.146 29.7821H183.116C185.074 29.7821 185.3 28.9822 185.3 28.3804V28.1451C185.3 27.5775 185.088 26.8233 183.261 26.8233Z" fill="black"/>
<path d="M199.767 24.754H199.229C199.099 24.754 198.995 24.8578 198.995 24.9859V28.9257H195.54C194.552 28.9257 194.05 28.6884 194.05 28.2202V24.9856C194.05 24.8574 193.946 24.7537 193.817 24.7537H193.277C193.148 24.7537 193.043 24.8574 193.043 24.9856V28.2733C193.043 28.6357 193.043 29.7398 195.541 29.7398H199.024L198.992 29.9927C198.949 30.3351 198.459 30.4021 197.626 30.4021H196.567C196.437 30.4021 196.333 30.5059 196.333 30.6343V30.965C196.333 31.0924 196.436 31.1965 196.565 31.1975L197.108 31.2006H197.109C197.967 31.2006 198.616 31.1269 199.035 30.9822C199.684 30.7648 200 30.3662 200 29.7628V24.9856C200.001 24.8574 199.896 24.754 199.767 24.754Z" fill="black"/>
</svg>
