<svg width="22" height="24" viewBox="0 0 22 24" fill="none" xmlns="http://www.w3.org/2000/svg">
<path d="M20.5312 19.8438C21.1172 20.4688 21.1172 21.4453 20.5312 22.0703C19.9062 22.6562 18.9297 22.6562 18.3047 22.0703L13.6562 17.3828C12.0547 18.4375 10.1016 18.9844 7.99219 18.7109C4.39844 18.2031 1.50781 15.2734 1.03906 11.7188C0.375 6.40625 4.86719 1.91406 10.1797 2.57812C13.7344 3.04688 16.6641 5.9375 17.1719 9.53125C17.4453 11.6406 16.8984 13.5938 15.8438 15.1562L20.5312 19.8438ZM4.08594 10.625C4.08594 13.3984 6.3125 15.625 9.08594 15.625C11.8203 15.625 14.0859 13.3984 14.0859 10.625C14.0859 7.89062 11.8203 5.625 9.08594 5.625C6.3125 5.625 4.08594 7.89062 4.08594 10.625Z" fill="#919EAB"/>
</svg>
