<svg width="24" height="24" viewBox="0 0 24 24" fill="none" xmlns="http://www.w3.org/2000/svg">
<path d="M20.9648 16.8555L20.1211 20.4062C20.0156 20.9336 19.5938 21.2852 19.0664 21.2852C10.207 21.25 3 14.043 3 5.18359C3 4.65625 3.31641 4.23438 3.84375 4.12891L7.39453 3.28516C7.88672 3.17969 8.41406 3.46094 8.625 3.91797L10.2773 7.75C10.4531 8.20703 10.3477 8.73438 9.96094 9.01562L8.0625 10.5625C9.25781 12.9883 11.2266 14.957 13.6875 16.1523L15.2344 14.2539C15.5156 13.9023 16.043 13.7617 16.5 13.9375L20.332 15.5898C20.7891 15.8359 21.0703 16.3633 20.9648 16.8555Z" fill="#333435"/>
</svg>
