<svg width="24" height="24" viewBox="0 0 24 24" fill="none" xmlns="http://www.w3.org/2000/svg">
<path d="M17.4844 6.69531C18.9609 8.17188 19.875 10.1055 19.875 12.2148C19.875 16.5039 16.2891 20.0195 11.9648 20.0195C10.6641 20.0195 9.39844 19.668 8.23828 19.0703L4.125 20.125L5.21484 16.082C4.54688 14.9219 4.16016 13.5859 4.16016 12.1797C4.16016 7.89062 7.67578 4.375 11.9648 4.375C14.0742 4.375 16.043 5.21875 17.4844 6.69531ZM11.9648 18.6836C15.5508 18.6836 18.5391 15.7656 18.5391 12.2148C18.5391 10.457 17.8008 8.83984 16.5703 7.60938C15.3398 6.37891 13.7227 5.71094 12 5.71094C8.41406 5.71094 5.49609 8.62891 5.49609 12.1797C5.49609 13.4102 5.84766 14.6055 6.48047 15.6602L6.65625 15.9062L5.98828 18.2969L8.44922 17.6289L8.66016 17.7695C9.67969 18.3672 10.8047 18.6836 11.9648 18.6836ZM15.5508 13.832C15.7266 13.9375 15.8672 13.9727 15.9023 14.0781C15.9727 14.1484 15.9727 14.5352 15.7969 14.9922C15.6211 15.4492 14.8477 15.8711 14.4961 15.9062C13.8633 16.0117 13.3711 15.9766 12.1406 15.4141C10.1719 14.5703 8.90625 12.6016 8.80078 12.4961C8.69531 12.3555 8.02734 11.4414 8.02734 10.457C8.02734 9.50781 8.51953 9.05078 8.69531 8.83984C8.87109 8.62891 9.08203 8.59375 9.22266 8.59375C9.32812 8.59375 9.46875 8.59375 9.57422 8.59375C9.71484 8.59375 9.85547 8.55859 10.0312 8.94531C10.1719 9.33203 10.5938 10.2812 10.6289 10.3867C10.6641 10.4922 10.6992 10.5977 10.6289 10.7383C10.2773 11.4766 9.85547 11.4414 10.0664 11.793C10.8398 13.0938 11.5781 13.5508 12.7383 14.1133C12.9141 14.2188 13.0195 14.1836 13.1602 14.0781C13.2656 13.9375 13.6523 13.4805 13.7578 13.3047C13.8984 13.0938 14.0391 13.1289 14.2148 13.1992C14.3906 13.2695 15.3398 13.7266 15.5508 13.832Z" fill="#333435"/>
</svg>
